HIERARCHY
ROOT hip
{
  OFFSET 0 0 0
  CHANNELS 6 Xposition Yposition Zposition Zrotation Yrotation Xrotation
  JOINT abdomen
  {
    OFFSET 0 20.6881 -0.73152
    CHANNELS 3 Zrotation Xrotation Yrotation
    JOINT chest
    {
      OFFSET 0 11.7043 -0.48768
      CHANNELS 3 Zrotation Xrotation Yrotation
      JOINT neck
      {
        OFFSET 0 22.1894 -2.19456
        CHANNELS 3 Zrotation Xrotation Yrotation
        JOINT head
        {
          OFFSET -0.24384 7.07133 1.2192
          CHANNELS 3 Zrotation Xrotation Yrotation
          JOINT leftEye
          {
            OFFSET 4.14528 8.04674 8.04672
            CHANNELS 3 Zrotation Xrotation Yrotation
            End Site
            {
              OFFSET 1 0 0
            }
          }
          JOINT rightEye
          {
            OFFSET -3.6576 8.04674 8.04672
            CHANNELS 3 Zrotation Xrotation Yrotation
            End Site
            {
              OFFSET 1 0 0
            }
          }
        }
      }
      JOINT rCollar
      {
        OFFSET -2.68224 19.2634 -4.8768
        CHANNELS 3 Zrotation Xrotation Yrotation
        JOINT rShldr
        {
          OFFSET -8.77824 -1.95073 1.46304
          CHANNELS 3 Zrotation Xrotation Yrotation
          JOINT rForeArm
          {
            OFFSET -28.1742 -1.7115 0.48768
            CHANNELS 3 Zrotation Xrotation Yrotation
            JOINT rHand
            {
              OFFSET -22.5879 0.773209 7.07136
              CHANNELS 3 Zrotation Xrotation Yrotation
              JOINT rThumb1
              {
                OFFSET -1.2192 -0.487915 3.41376
                CHANNELS 3 Zrotation Xrotation Yrotation
                JOINT rThumb2
                {
                  OFFSET -3.37035 -0.52449 3.41376
                  CHANNELS 3 Zrotation Xrotation Yrotation
                  End Site
                  {
                    OFFSET -1.78271 -1.18214 1.43049
                  }
                }
              }
              JOINT rIndex1
              {
                OFFSET -7.75947 0.938293 5.60832
                CHANNELS 3 Zrotation Xrotation Yrotation
                JOINT rIndex2
                {
                  OFFSET -2.54057 -0.884171 1.56538
                  CHANNELS 3 Zrotation Xrotation Yrotation
                  End Site
                  {
                    OFFSET -1.62519 -0.234802 1.16502
                  }
                }
              }
              JOINT rMid1
              {
                OFFSET -8.24714 1.18213 3.41376
                CHANNELS 3 Zrotation Xrotation Yrotation
                JOINT rMid2
                {
                  OFFSET -3.10165 -0.590103 1.0647
                  CHANNELS 3 Zrotation Xrotation Yrotation
                  End Site
                  {
                    OFFSET -2.48547 -0.328903 0.83742
                  }
                }
              }
              JOINT rRing1
              {
                OFFSET -8.82822 0.546677 1.51678
                CHANNELS 3 Zrotation Xrotation Yrotation
                JOINT rRing2
                {
                  OFFSET -2.60934 -0.819778 -0.0198488
                  CHANNELS 3 Zrotation Xrotation Yrotation
                  End Site
                  {
                    OFFSET -2.33842 -0.294052 0.168128
                  }
                }
              }
              JOINT rPinky1
              {
                OFFSET -8.27202 -0.0477905 -0.4584
                CHANNELS 3 Zrotation Xrotation Yrotation
                JOINT rPinky2
                {
                  OFFSET -1.82734 -0.647385 -0.700984
                  CHANNELS 3 Zrotation Xrotation Yrotation
                  End Site
                  {
                    OFFSET -1.69225 -0.51767 -0.607171
                  }
                }
              }
            }
          }
        }
      }
      JOINT lCollar
      {
        OFFSET 2.68224 19.2634 -4.8768
        CHANNELS 3 Zrotation Xrotation Yrotation
        JOINT lShldr
        {
          OFFSET 8.77824 -1.95073 1.46304
          CHANNELS 3 Zrotation Xrotation Yrotation
          JOINT lForeArm
          {
            OFFSET 28.1742 -1.7115 0.48768
            CHANNELS 3 Zrotation Xrotation Yrotation
            JOINT lHand
            {
              OFFSET 22.5879 0.773209 7.07136
              CHANNELS 3 Zrotation Xrotation Yrotation
              JOINT lThumb1
              {
                OFFSET 1.2192 -0.487915 3.41376
                CHANNELS 3 Zrotation Xrotation Yrotation
                JOINT lThumb2
                {
                  OFFSET 3.37035 -0.52449 3.41376
                  CHANNELS 3 Zrotation Xrotation Yrotation
                  End Site
                  {
                    OFFSET 1.78271 -1.18214 1.43049
                  }
                }
              }
              JOINT lIndex1
              {
                OFFSET 7.75947 0.938293 5.60832
                CHANNELS 3 Zrotation Xrotation Yrotation
                JOINT lIndex2
                {
                  OFFSET 2.54057 -0.884171 1.56538
                  CHANNELS 3 Zrotation Xrotation Yrotation
                  End Site
                  {
                    OFFSET 1.62519 -0.234802 1.16502
                  }
                }
              }
              JOINT lMid1
              {
                OFFSET 8.24714 1.18213 3.41376
                CHANNELS 3 Zrotation Xrotation Yrotation
                JOINT lMid2
                {
                  OFFSET 3.10165 -0.590103 1.0647
                  CHANNELS 3 Zrotation Xrotation Yrotation
                  End Site
                  {
                    OFFSET 2.48547 -0.328903 0.83742
                  }
                }
              }
              JOINT lRing1
              {
                OFFSET 8.82822 0.546677 1.51678
                CHANNELS 3 Zrotation Xrotation Yrotation
                JOINT lRing2
                {
                  OFFSET 2.60934 -0.819778 -0.0198488
                  CHANNELS 3 Zrotation Xrotation Yrotation
                  End Site
                  {
                    OFFSET 2.33842 -0.294052 0.168128
                  }
                }
              }
              JOINT lPinky1
              {
                OFFSET 8.27202 -0.0477905 -0.4584
                CHANNELS 3 Zrotation Xrotation Yrotation
                JOINT lPinky2
                {
                  OFFSET 1.82734 -0.647385 -0.700984
                  CHANNELS 3 Zrotation Xrotation Yrotation
                  End Site
                  {
                    OFFSET 1.69225 -0.51767 -0.607171
                  }
                }
              }
            }
          }
        }
      }
    }
  }
  JOINT rButtock
  {
    OFFSET -8.77824 4.35084 1.2192
    CHANNELS 3 Zrotation Xrotation Yrotation
    JOINT rThigh
    {
      OFFSET 0 -1.70687 -2.19456
      CHANNELS 3 Zrotation Xrotation Yrotation
      JOINT rShin
      {
        OFFSET 0 -36.8199 0.73152
        CHANNELS 3 Zrotation Xrotation Yrotation
        JOINT rFoot
        {
          OFFSET 0.73152 -45.1104 -5.12064
          CHANNELS 3 Zrotation Xrotation Yrotation
          End Site
          {
            OFFSET -1.1221 -3.69964 12.103
          }
        }
      }
    }
  }
  JOINT lButtock
  {
    OFFSET 8.77824 4.35084 1.2192
    CHANNELS 3 Zrotation Xrotation Yrotation
    JOINT lThigh
    {
      OFFSET 0 -1.70687 -2.19456
      CHANNELS 3 Zrotation Xrotation Yrotation
      JOINT lShin
      {
        OFFSET 0 -36.8199 0.73152
        CHANNELS 3 Zrotation Xrotation Yrotation
        JOINT lFoot
        {
          OFFSET -0.73152 -45.1104 -5.12064
          CHANNELS 3 Zrotation Xrotation Yrotation
          End Site
          {
            OFFSET 1.1221 -3.69964 12.103
          }
        }
      }
    }
  }
}
MOTION
Frames:	5
Frame Time:	0.00833333
207.525 84.7658 31.6894 0.0 0.0 0.0 -0.385196 -0.00168813 -0.0109958 -0.106234 -0.00256712 -0.0184049 8.00567e-15 0.0 8.07563e-17 2.40809e-14 3.18055e-15 2.2208e-16 -0.0 0.0 0.0 -0.0 0.0 0.0 4.07393e-15 6.60027e-18 1.98785e-16 8.62613e-14 4.78326e-16 1.98785e-15 1.44571e-12 -4.26393e-13 6.36111e-15 1.65306e-11 4.56931e-13 1.62208e-13 3.89906e-11 5.78431e-14 3.65764e-13 6.73208e-11 9.54166e-14 6.30545e-13 3.8994e-11 6.0033e-14 3.56222e-13 7.73091 5.47488 0.417314 3.89905e-11 5.76476e-14 3.65764e-13 2.90554 0.965183 0.102902 3.90022e-11 5.83433e-14 3.64174e-13 10.2786 0.731801 0.0259123 3.89813e-11 6.12257e-14 3.65764e-13 2.22167 -0.733487 -0.20892 3.97711e-15 6.98852e-18 -9.93923e-17 8.23548e-14 2.73329e-16 0.0 1.44397e-12 4.37127e-13 6.36111e-15 1.65313e-11 -4.10764e-13 1.68569e-13 3.89942e-11 5.37922e-14 3.65764e-13 6.73478e-11 9.22361e-14 6.36906e-13 3.89892e-11 5.48646e-14 3.72125e-13 -7.73091 5.47488 -0.417314 3.89946e-11 5.35725e-14 3.65764e-13 -2.90554 0.965183 -0.102902 3.89888e-11 5.37713e-14 3.67354e-13 -10.2786 0.731801 -0.0259123 3.8998e-11 5.60573e-14 3.62583e-13 -2.22167 -0.733487 0.20892 -2.03217e-16 0.0 -3.88251e-19 0.221648 -2.58356 -0.0280809 -0.00748956 -0.87263 -0.0651399 -0.513108 3.45577 0.129347 2.03217e-16 0.0 3.88251e-19 -0.807777 -4.07084 0.0653913 0.00325577 1.82139 0.0244321 0.517713 2.24911 -0.105181
204.389 83.3844 24.0452 -129.098 -81.0261 139.919 1.577 -2.53669 -0.789604 -0.0717865 -0.0422305 -0.314992 -3.25568 0.968246 -2.28287 3.4323 -3.04329 -3.5241 -0.0 0.0 0.0 -0.0 0.0 0.0 1.15725e-13 -8.8406e-13 -2.30082e-14 21.3129 4.61832 1.32904 -3.36257 -1.39185 5.39248 0.0356233 4.18872 0.583018 5.20008e-10 1.46582e-09 -2.99484e-09 8.61271e-10 2.52497e-09 -5.18009e-09 5.20011e-10 1.46582e-09 -2.99485e-09 7.73091 5.47488 0.417314 5.20007e-10 1.46582e-09 -2.99485e-09 2.90554 0.965183 0.102902 5.20016e-10 1.46582e-09 -2.99485e-09 10.2786 0.731801 0.0259123 5.19999e-10 1.46582e-09 -2.99484e-09 2.22167 -0.733487 -0.20892 1.15653e-13 -8.8406e-13 -2.33075e-14 -22.5266 1.20117 0.168893 3.3847 -1.40249 -5.42447 -0.127049 7.921 -1.07519 -2.10025e-09 1.06922e-09 1.35493e-09 -3.59517e-09 1.85046e-09 2.38856e-09 -2.10025e-09 1.06922e-09 1.35493e-09 -7.73091 5.47488 -0.417314 -2.10025e-09 1.06922e-09 1.35493e-09 -2.90554 0.965183 -0.102902 -2.10025e-09 1.06922e-09 1.35493e-09 -10.2786 0.731801 -0.0259123 -2.10024e-09 1.06922e-09 1.35492e-09 -2.22167 -0.733487 0.20892 -2.03217e-16 0.0 -3.88251e-19 2.52892 -5.78961 1.68849 -0.00763535 3.0888 0.00755292 -0.687837 1.36265 -3.22422 2.03217e-16 0.0 3.88251e-19 1.85206 -6.57211 -0.746519 -0.00236838 5.12571 -0.0389767 0.644544 -0.577748 2.51075
204.392 83.3803 24.0581 -129.356 -81.0659 140.189 3.58098 -5.21931 -1.61803 -0.033752 -0.0809564 -0.628827 -6.61457 1.98976 -4.69684 6.65097 -6.22808 -7.27931 -0.0 0.0 0.0 -0.0 0.0 0.0 2.40058e-13 -1.8842e-12 -4.63137e-14 43.6048 9.49534 2.76526 -6.63325 -2.82191 11.1024 -0.020371 8.61625 1.20993 9.72735e-10 3.01539e-09 -6.18236e-09 1.60399e-09 5.19357e-09 -1.06926e-08 9.72738e-10 3.01539e-09 -6.18236e-09 7.73091 5.47488 0.417314 9.72735e-10 3.01539e-09 -6.18236e-09 2.90554 0.965183 0.102902 9.72741e-10 3.01539e-09 -6.18236e-09 10.2786 0.731801 0.0259123 9.72727e-10 3.01539e-09 -6.18235e-09 2.22167 -0.733487 -0.20892 2.40017e-13 -1.8842e-12 -4.6615e-14 -46.3508 2.46375 0.347703 6.67611 -2.84361 -11.1703 0.0741944 16.2924 -2.28333 -4.38621e-09 2.19155e-09 2.72869e-09 -7.51041e-09 3.7934e-09 4.81309e-09 -4.38621e-09 2.19156e-09 2.72869e-09 -7.73091 5.47488 -0.417314 -4.38621e-09 2.19156e-09 2.72869e-09 -2.90554 0.965183 -0.102902 -4.38621e-09 2.19156e-09 2.72869e-09 -10.2786 0.731801 -0.0259123 -4.3862e-09 2.19156e-09 2.72868e-09 -2.22167 -0.733487 0.20892 -2.03217e-16 0.0 -3.88251e-19 5.18099 -9.16095 3.5313 -0.0187367 7.26648 0.084846 -1.13767 -0.835197 -6.76766 2.03217e-16 0.0 3.88251e-19 4.58752 -9.21249 -1.61635 -0.000263306 8.61704 -0.106846 1.05937 -3.55098 5.28716
204.378 83.3791 24.0688 -129.386 -81.1109 140.161 5.29321 -7.60101 -2.36529 -0.00412344 -0.121544 -0.908166 -9.53592 2.88629 -6.85636 9.16908 -8.991 -10.6902 -0.0 0.0 0.0 -0.0 0.0 0.0 3.39026e-13 -2.65219e-12 -6.9422e-14 63.2801 13.8247 4.09293 -9.31169 -4.02784 16.2138 -0.15416 12.5609 1.78717 1.48204e-09 4.39735e-09 -8.98526e-09 2.44917e-09 7.57472e-09 -1.55415e-08 1.48204e-09 4.39735e-09 -8.98527e-09 7.73091 5.47488 0.417314 1.48204e-09 4.39735e-09 -8.98527e-09 2.90554 0.965183 0.102902 1.48204e-09 4.39735e-09 -8.98527e-09 10.2786 0.731801 0.0259123 1.48203e-09 4.39735e-09 -8.98526e-09 2.22167 -0.733487 -0.20892 3.39006e-13 -2.65219e-12 -6.97237e-14 -67.601 3.60337 0.507572 9.36763 -4.05686 -16.3105 0.580162 23.7279 -3.49014 -6.37873e-09 3.20754e-09 4.06406e-09 -1.09202e-08 5.55119e-09 7.16441e-09 -6.37873e-09 3.20755e-09 4.06406e-09 -7.73091 5.47488 -0.417314 -6.37873e-09 3.20755e-09 4.06405e-09 -2.90554 0.965183 -0.102902 -6.37873e-09 3.20755e-09 4.06405e-09 -10.2786 0.731801 -0.0259123 -6.37873e-09 3.20755e-09 4.06405e-09 -2.22167 -0.733487 0.20892 -2.03217e-16 0.0 -3.88251e-19 7.73079 -12.1602 5.21302 -0.0384413 11.0116 0.155758 -1.76924 -2.7749 -9.93992 2.03217e-16 0.0 3.88251e-19 6.95506 -11.5664 -2.40414 0.0087193 11.7343 -0.16883 1.67342 -6.1761 7.78753
204.389 83.3715 24.0609 -129.564 -81.1401 140.386 6.42424 -9.23584 -2.89193 0.00520358 -0.166796 -1.10127 -11.5273 3.48802 -8.37222 10.7354 -10.8316 -13.1272 -0.0 0.0 0.0 -0.0 0.0 0.0 3.74585e-13 -2.8398e-12 -9.20373e-14 76.8867 16.8139 5.04785 -11.0524 -4.81393 19.7941 -0.296128 15.3034 2.20394 2.1328e-09 5.36028e-09 -1.08267e-08 3.55049e-09 9.2373e-09 -1.87314e-08 2.1328e-09 5.36028e-09 -1.08267e-08 7.73091 5.47488 0.417314 2.1328e-09 5.36028e-09 -1.08267e-08 2.90554 0.965183 0.102902 2.1328e-09 5.36028e-09 -1.08267e-08 10.2786 0.731801 0.0259123 2.13279e-09 5.36028e-09 -1.08267e-08 2.22167 -0.733487 -0.20892 3.7456e-13 -2.8398e-12 -9.23355e-14 -82.4014 4.43574 0.619263 11.1105 -4.84405 -19.9011 1.14335 28.8572 -4.44177 -7.63769e-09 3.95766e-09 5.30344e-09 -1.30664e-08 6.84609e-09 9.33272e-09 -7.63768e-09 3.95766e-09 5.30344e-09 -7.73091 5.47488 -0.417314 -7.63769e-09 3.95766e-09 5.30344e-09 -2.90554 0.965183 -0.102902 -7.63769e-09 3.95766e-09 5.30344e-09 -10.2786 0.731801 -0.0259123 -7.63768e-09 3.95766e-09 5.30343e-09 -2.22167 -0.733487 0.20892 -2.03217e-16 0.0 -3.88251e-19 9.60826 -14.2671 6.41187 -0.0582667 13.6754 0.207765 -2.34254 -4.12427 -12.1652 2.03217e-16 0.0 3.88251e-19 8.55713 -13.2114 -2.95822 0.0190398 13.9165 -0.213331 2.2381 -7.98749 9.54742
